<svg width="56" height="76" viewBox="0 0 56 76" fill="none" xmlns="http://www.w3.org/2000/svg">
<path d="M52.5666 66.9612C56.9765 55.0738 56.9765 20.4879 52.5668 8.60126L53.8606 1.75022C53.9423 1.31839 53.8271 0.872773 53.5466 0.534195C53.2661 0.195863 52.8495 0 52.4101 0H3.46538C3.02592 0 2.60934 0.195863 2.32883 0.534195C2.04832 0.872527 1.93317 1.31839 2.01486 1.74998L3.30766 8.60101C-1.10247 20.4872 -1.10247 55.0731 3.30716 66.9609L2.01314 73.8122C1.93144 74.244 2.0466 74.6897 2.32711 75.0282C2.60762 75.3666 3.0242 75.5624 3.46366 75.5624H52.4084C52.4103 75.5624 52.412 75.5624 52.4133 75.5624C53.229 75.5624 53.8896 74.9013 53.8896 74.0861C53.8896 73.9493 53.8712 73.8169 53.8365 73.6914L52.5666 66.9612ZM50.6289 2.95272L49.8154 7.25925H6.05885L5.24636 2.95272H50.6289ZM5.86815 10.212H50.0053C53.8955 21.7421 53.8955 53.8191 50.0053 65.3505H5.8684C1.97844 53.8191 1.97844 21.7421 5.86815 10.212ZM5.24513 72.6097L6.0586 68.3032H49.8151L50.6276 72.6097H5.24513Z" fill="white"/>
<path d="M29.0625 53V45.7812H15V39.9688L27.2812 20.75H32.1562C33.0938 20.75 33.875 21.0938 34.5 21.7812C35.125 22.4062 35.4688 23.1562 35.5312 24.0312V26V40.5312H39.375V45.7812H35.5312V53H29.0625ZM29.1562 40.7188V26.4688L20.1562 40.7188H29.1562Z" fill="white"/>
</svg>
