<svg width="56" height="76" viewBox="0 0 56 76" fill="none" xmlns="http://www.w3.org/2000/svg">
<path d="M52.5666 66.9612C56.9765 55.0738 56.9765 20.4879 52.5668 8.60126L53.8606 1.75022C53.9423 1.31839 53.8271 0.872773 53.5466 0.534195C53.2661 0.195863 52.8495 0 52.4101 0H3.46538C3.02592 0 2.60934 0.195863 2.32883 0.534195C2.04832 0.872527 1.93317 1.31839 2.01486 1.74998L3.30766 8.60101C-1.10247 20.4872 -1.10247 55.0731 3.30716 66.9609L2.01314 73.8122C1.93144 74.244 2.0466 74.6897 2.32711 75.0282C2.60762 75.3666 3.0242 75.5624 3.46366 75.5624H52.4084C52.4103 75.5624 52.412 75.5624 52.4133 75.5624C53.229 75.5624 53.8896 74.9013 53.8896 74.0861C53.8896 73.9493 53.8712 73.8169 53.8365 73.6914L52.5666 66.9612ZM50.6289 2.95272L49.8154 7.25925H6.05885L5.24636 2.95272H50.6289ZM5.86815 10.212H50.0053C53.8955 21.7421 53.8955 53.8191 50.0053 65.3505H5.8684C1.97844 53.8191 1.97844 21.7421 5.86815 10.212ZM5.24513 72.6097L6.0586 68.3032H49.8151L50.6276 72.6097H5.24513Z" fill="white"/>
<path d="M14.4375 42.7812H20.7188C20.7188 44.5938 21.1562 45.9375 22.0312 46.8125C22.9688 47.75 24.2812 48.2188 25.9688 48.2188C27.7188 48.2188 29 47.7812 29.8125 46.9062C30.75 46.0938 31.2188 44.875 31.2188 43.25C31.2188 41.6875 30.6875 40.4688 29.625 39.5938C28.625 38.7812 27.0312 38.375 24.8438 38.375C24.7812 38.375 24.6875 38.375 24.5625 38.375C24.5 38.375 24.4375 38.375 24.375 38.375C24.25 38.375 24.125 38.4062 24 38.4688C23.9375 38.4688 23.9062 38.4688 23.9062 38.4688V33.9688H24.5625C26.5 33.9688 27.9375 33.5938 28.875 32.8438C29.8125 32.0938 30.2812 30.9688 30.2812 29.4688C30.2812 28.2812 29.875 27.2812 29.0625 26.4688C28.375 25.7812 27.3125 25.4375 25.875 25.4375C24.3125 25.4375 23.1875 25.8438 22.5 26.6562C21.6875 27.4688 21.2812 28.6875 21.2812 30.3125V30.5H17.9062C16.5938 30.5 15.8125 30.1562 15.5625 29.4688C15.3125 28.7188 15.2812 27.9375 15.4688 27.125C15.9062 25.4375 16.75 24.0312 18 22.9062C20 21.0938 22.7188 20.1875 26.1562 20.1875C29.4688 20.1875 32.0938 21 34.0312 22.625C36.0312 24.25 37.0312 26.375 37.0312 29C37.0312 30.4375 36.6875 31.6875 36 32.75C35.25 33.875 34.25 34.75 33 35.375C34.6875 36.1875 35.9688 37.1875 36.8438 38.375C37.7188 39.625 38.1562 41.1562 38.1562 42.9688C38.1562 46.2812 37.0625 48.875 34.875 50.75C32.75 52.5625 29.7812 53.4688 25.9688 53.4688C22.1562 53.4688 19.2812 52.5625 17.3438 50.75C15.4062 49 14.4375 46.375 14.4375 42.875V42.7812Z" fill="white"/>
</svg>
