<svg width="56" height="76" viewBox="0 0 56 76" fill="none" xmlns="http://www.w3.org/2000/svg">
<path d="M52.5666 66.9612C56.9765 55.0738 56.9765 20.4879 52.5668 8.60126L53.8606 1.75022C53.9423 1.31839 53.8271 0.872773 53.5466 0.534195C53.2661 0.195863 52.8495 0 52.4101 0H3.46538C3.02592 0 2.60934 0.195863 2.32883 0.534195C2.04832 0.872527 1.93317 1.31839 2.01486 1.74998L3.30766 8.60101C-1.10247 20.4872 -1.10247 55.0731 3.30716 66.9609L2.01314 73.8122C1.93144 74.244 2.0466 74.6897 2.32711 75.0282C2.60762 75.3666 3.0242 75.5624 3.46366 75.5624H52.4084C52.4103 75.5624 52.412 75.5624 52.4133 75.5624C53.229 75.5624 53.8896 74.9013 53.8896 74.0861C53.8896 73.9493 53.8712 73.8169 53.8365 73.6914L52.5666 66.9612ZM50.6289 2.95272L49.8154 7.25925H6.05885L5.24636 2.95272H50.6289ZM5.86815 10.212H50.0053C53.8955 21.7421 53.8955 53.8191 50.0053 65.3505H5.8684C1.97844 53.8191 1.97844 21.7421 5.86815 10.212ZM5.24513 72.6097L6.0586 68.3032H49.8151L50.6276 72.6097H5.24513Z" fill="white"/>
<path d="M15.4375 53C15.4375 50 16.1562 47.3438 17.5938 45.0312C18.9062 42.9062 20.875 40.9375 23.5 39.125C23.6875 39 23.9688 38.8438 24.3438 38.6562C24.7188 38.4062 25.1562 38.125 25.6562 37.8125C27.7188 36.5 29.3125 35.2812 30.4375 34.1562C31.5625 33.0312 32.125 31.8438 32.125 30.5938C32.125 29.0938 31.6875 27.9375 30.8125 27.125C29.9375 26.25 28.75 25.8125 27.25 25.8125C25.5625 25.8125 24.25 26.3438 23.3125 27.4062C22.4375 28.5312 22 30 22 31.8125V32.0938H18.625C17.3125 32.0938 16.5312 31.75 16.2812 31.0625C16.0938 30.3125 16.0625 29.5 16.1875 28.625C16.625 26.5625 17.5312 24.7812 18.9062 23.2812C20.9688 21.2812 23.875 20.2812 27.625 20.2812C31.125 20.2812 33.875 21.1875 35.875 23C37.875 24.9375 38.875 27.4375 38.875 30.5C38.875 32.8125 38.3438 34.7188 37.2812 36.2188C36.1562 37.9062 34.0938 39.75 31.0938 41.75C30.0312 42.5 28.6875 43.375 27.0625 44.375C25.5 45.375 24.625 46.3438 24.4375 47.2812H38.5938V53H15.4375Z" fill="white"/>
</svg>
