<svg width="35" height="22" viewBox="0 0 35 22" fill="none" xmlns="http://www.w3.org/2000/svg">
<path d="M3.33393 21.966C3.33776 21.9667 3.34135 21.9672 3.34518 21.9681C3.37149 21.9717 3.39667 21.9773 3.42343 21.9807C3.52845 21.9937 3.63593 22 3.75287 22C4.65347 22 6 21.5968 8.123 20.9388C10.1756 20.3025 12.5024 19.5813 14.0243 19.4958C14.1727 19.4875 14.3195 19.4837 14.4659 19.4837C15.7007 19.4837 16.9361 19.7704 18.2442 20.0742C19.8129 20.4383 21.5907 20.8511 23.7002 20.8511C25.4212 20.8511 29.7277 20.5352 32.5379 17.6071C34.2004 15.8752 34.9858 13.5961 34.8725 10.8334C34.5617 3.27119 26.3575 0 22.2411 0C15.9856 0 12.5017 5.15201 11.2618 8.51226C2.83989 9.7414 2.67382e-07 16.5602 2.67382e-07 18.3636C-0.000674345 20.302 1.27524 21.6739 3.33393 21.966ZM22.2406 2.69845C25.0648 2.69845 31.9343 5.07106 32.1759 10.944C32.2579 12.9442 31.7245 14.5572 30.5907 15.7385C28.4407 17.9784 24.7729 18.1525 23.6998 18.1525C21.8995 18.1525 20.3512 17.7929 18.8541 17.4452C17.4556 17.1208 16.0097 16.7848 14.4655 16.7848C14.2669 16.7848 14.0675 16.7904 13.8725 16.8012C12.7441 16.8644 11.3782 17.1763 9.98561 17.5642C12.1615 14.4803 13.3578 10.8129 13.564 10.1482C13.566 10.1417 13.5671 10.1349 13.5691 10.1282C13.5705 10.1239 13.5727 10.1201 13.5736 10.1158C13.6602 9.81358 15.7664 2.69845 22.2406 2.69845ZM10.2015 11.4781C8.91455 14.5604 6.50641 18.8574 3.59501 19.2775C2.69935 19.1174 2.698 18.6679 2.69777 18.3737C2.73578 17.6609 4.47088 12.9699 10.2015 11.4781Z" fill="#F6941B"/>
</svg>
