<svg width="58" height="79" viewBox="0 0 58 79" fill="none" xmlns="http://www.w3.org/2000/svg">
<path fill-rule="evenodd" clip-rule="evenodd" d="M28.8327 44.9878C24.0822 40.2524 19.447 35.6241 14.9271 31.1028C14.6783 30.8662 14.3481 30.7342 14.0047 30.7342C13.6613 30.7342 13.3311 30.8662 13.0823 31.1028C12.37 31.7431 12.4317 32.7561 12.9176 33.2173C17.616 37.9033 22.5264 42.8054 27.6488 47.9238C27.9824 48.3301 28.3763 48.5332 28.8306 48.5332C29.285 48.5332 29.6912 48.3301 30.0495 47.9238L45.0916 32.5173C45.363 32.2215 45.5085 31.8317 45.4973 31.4304C45.4862 31.0292 45.3192 30.648 45.0319 30.3678C44.2927 29.6307 43.5639 29.9149 43.218 30.2484C38.4294 35.1693 33.6336 40.0831 28.8306 44.9899" fill="#1A5B1C"/>
<path d="M54.5667 69.509C59.1444 57.1693 59.1444 21.2675 54.567 8.92853L55.91 1.81682C55.9948 1.36855 55.8752 0.905982 55.5841 0.554521C55.2929 0.203316 54.8605 0 54.4043 0H3.59724C3.14105 0 2.70862 0.203316 2.41744 0.554521C2.12626 0.905727 2.00672 1.36855 2.09152 1.81656L3.43351 8.92828C-1.14442 21.2667 -1.14442 57.1686 3.433 69.5088L2.08974 76.6207C2.00494 77.069 2.12447 77.5316 2.41565 77.883C2.70684 78.2342 3.13926 78.4376 3.59545 78.4376H54.4025C54.4045 78.4376 54.4063 78.4376 54.4076 78.4376C55.2543 78.4376 55.9401 77.7512 55.9401 76.905C55.9401 76.763 55.921 76.6256 55.8849 76.4953L54.5667 69.509ZM52.5553 3.06506L51.7108 7.53546H6.28938L5.44598 3.06506H52.5553ZM6.09143 10.6005H51.908C55.9462 22.5693 55.9462 55.8669 51.908 67.837H6.09169C2.05372 55.8669 2.05372 22.5693 6.09143 10.6005ZM5.44471 75.3725L6.28913 70.9021H51.7106L52.554 75.3725H5.44471Z" fill="#1A5B1C"/>
</svg>
